# xmcd
#
# Track frame offsets: 
#        150
#        12148
#        25913
#        44305
#        61938
#        75388
#        91293
#        105833
#        126353
#        139945
#        152718
#        169138
#
# Disc length: 2400 seconds
#
# Revision: 2
# Processed by: cddbd v1.5.2PL0 Copyright (c) Steve Scherf et al.
# Submitted via: ExactAudioCopy v1.0b4
#
DISCID=8b095e0c
DTITLE=Archie Edwards - Living Country Blues USA, Vol 6 -  Archie Edwa
DTITLE=rds: The Road Is Rough And Rocky
DYEAR=2008
DGENRE=Country-Blues
TTITLE0=That Won't Do
TTITLE1=My Old Schoolmates
TTITLE2=I Called My Baby Long Distance
TTITLE3=Pittsburgh Blues
TTITLE4=Baby Please Give Me A Break
TTITLE5=Duffle Bag Blues
TTITLE6=Lovin' Spoonful
TTITLE7=The Road Is Rough And Rocky
TTITLE8=Jinky Lou
TTITLE9=Stagg-O-Lee
TTITLE10=T For Texas
TTITLE11=Do Lord Remember Me
EXTD=YEAR: 2008
EXTT0=
EXTT1=
EXTT2=
EXTT3=
EXTT4=
EXTT5=
EXTT6=
EXTT7=
EXTT8=
EXTT9=
EXTT10=
EXTT11=
PLAYORDER=
